# xmcd
#
# Track frame offsets: 
#        150
#        31806
#        45274
#        73720
#        91515
#        108638
#        127574
#        147030
#        155442
#        178110
#        199846
#        221603
#        243321
#
# Disc length: 3477 seconds
#
# Revision: 0
# Processed by: cddbd v1.5.2PL0 Copyright (c) Steve Scherf et al.
# Submitted via: ExactAudioCopy v0.99pb5
#
DISCID=a40d930d
DTITLE=ДиДюЛя - Live in Saint Petersburg
DYEAR=2010
DGENRE=Instrumental
TTITLE0=Лес
TTITLE1=Дуновение
TTITLE2=Уличные Страсти
TTITLE3=В Изгнании
TTITLE4=Цветные Сны
TTITLE5=Дарбук-Джамбей
TTITLE6=Черная Жемчужина
TTITLE7=Яблочный Пирог
TTITLE8=Две Сестры
TTITLE9=Танец Круга
TTITLE10=Путь Домой
TTITLE11=Кофе Утром
TTITLE12=Фламенко-Бис
EXTD=
EXTT0=
EXTT1=
EXTT2=
EXTT3=
EXTT4=
EXTT5=
EXTT6=
EXTT7=
EXTT8=
EXTT9=
EXTT10=
EXTT11=
EXTT12=
PLAYORDER=
